<svg width="171" height="32" viewBox="0 0 171 32" fill="none" xmlns="http://www.w3.org/2000/svg"><rect width="171" height="32" rx="16" fill="#003176"/><path d="M27.625 9.347h-3.042L20.93 19.643 17.221 9.347h-3.078l5.202 13.428h3.168l5.112-13.428zm1.511 13.428h8.424v-2.628h-5.49v-2.934h5.022v-2.43H32.07v-2.79h5.49V9.347h-8.424v13.428zm17-4.968c2.574-.666 3.42-2.484 3.42-4.086 0-2.808-2.016-4.374-5.256-4.374h-4.248v13.428h2.934V18.06h.126l3.564 4.716h3.528l-4.068-4.968zm-3.15-2.016V12.03h1.242c1.458 0 2.376.648 2.376 1.872 0 1.188-.846 1.89-2.43 1.89h-1.188zm9.002 6.984h2.934V9.347h-2.934v13.428zm5.854 0h2.934v-4.86h4.967v-2.52h-4.967V12.03h5.291V9.347h-8.225v13.428zm10.511 0h8.424v-2.628h-5.49v-2.934h5.022v-2.43h-5.022v-2.79h5.49V9.347h-8.424v13.428zm14.426 0h2.916v-5.364l4.95-8.064h-3.132l-3.168 5.454h-.054l-3.204-5.454h-3.294l4.986 8.082v5.346zm9.322 0h8.424v-2.628h-5.49v-2.934h5.022v-2.43h-5.022v-2.79h5.49V9.347h-8.424v13.428zm14.876-13.428h-3.96v13.428h3.96c4.32 0 7.308-2.664 7.308-6.714 0-4.032-2.934-6.714-7.308-6.714zm-1.026 2.682h1.152c2.502 0 4.212 1.44 4.212 4.05 0 2.574-1.71 4.032-4.212 4.032h-1.152V12.03zM155.141 4h-22.282C126.31 4 121 9.373 121 16s5.31 12 11.859 12h22.282C161.69 28 167 22.627 167 16s-5.31-12-11.859-12z" fill="#fff"/><path d="M154.723 26.038c5.512 0 9.98-4.523 9.98-10.101 0-5.58-4.468-10.102-9.98-10.102-5.512 0-9.98 4.523-9.98 10.102 0 5.578 4.468 10.1 9.98 10.1zM133.295 26.038c5.512 0 9.98-4.523 9.98-10.101 0-5.58-4.468-10.102-9.98-10.102-5.512 0-9.981 4.523-9.981 10.102 0 5.578 4.469 10.1 9.981 10.1z" fill="#4FBBEB" stroke="#010101" stroke-width=".75" stroke-miterlimit="10"/><path d="M154.723 23.804c4.293 0 7.773-3.522 7.773-7.867 0-4.345-3.48-7.868-7.773-7.868-4.293 0-7.773 3.523-7.773 7.868 0 4.345 3.48 7.867 7.773 7.867zM133.295 23.804c4.293 0 7.773-3.522 7.773-7.867 0-4.345-3.48-7.868-7.773-7.868-4.293 0-7.773 3.523-7.773 7.868 0 4.345 3.48 7.867 7.773 7.867z" fill="#fff" stroke="#010101" stroke-width="1.5" stroke-miterlimit="10"/><path d="M129.692 20.392c1.294 0 2.344-1.608 2.344-3.592s-1.05-3.593-2.344-3.593c-1.295 0-2.345 1.609-2.345 3.593s1.05 3.592 2.345 3.592z" fill="#010101"/><path d="M130.288 17.41c.508 0 .919-.63.919-1.407s-.411-1.407-.919-1.407c-.507 0-.918.63-.918 1.407s.411 1.407.918 1.407z" fill="#fff"/><path d="M151.12 20.392c1.295 0 2.344-1.608 2.344-3.592s-1.049-3.593-2.344-3.593-2.345 1.609-2.345 3.593 1.05 3.592 2.345 3.592z" fill="#010101"/><path d="M151.717 17.41c.507 0 .918-.63.918-1.407s-.411-1.407-.918-1.407c-.508 0-.919.63-.919 1.407s.411 1.407.919 1.407z" fill="#fff"/></svg>